<?xml version="1.0" encoding="UTF-8"?>
<!--
  Vendored Lucide icon sprite. Source manifest: public/ext/icons/lucide.txt
  Upstream: https://lucide.dev/ (ISC licensed).
-->
<svg xmlns="http://www.w3.org/2000/svg" style="display:none" aria-hidden="true">
  <symbol id="i-box" viewBox="0 0 24 24" fill="none" stroke="currentColor" stroke-width="2" stroke-linecap="round" stroke-linejoin="round">
    <path d="M21 16V8a2 2 0 0 0-1-1.73l-7-4a2 2 0 0 0-2 0l-7 4A2 2 0 0 0 3 8v8a2 2 0 0 0 1 1.73l7 4a2 2 0 0 0 2 0l7-4A2 2 0 0 0 21 16z" />   <polyline points="3.29 7 12 12 20.71 7" />   <line x1="12" x2="12" y1="22" y2="12" />  
  </symbol>
  <symbol id="i-layers" viewBox="0 0 24 24" fill="none" stroke="currentColor" stroke-width="2" stroke-linecap="round" stroke-linejoin="round">
    <polygon points="12 2 2 7 12 12 22 7 12 2" />   <polyline points="2 17 12 22 22 17" />   <polyline points="2 12 12 17 22 12" />  
  </symbol>
  <symbol id="i-boxes" viewBox="0 0 24 24" fill="none" stroke="currentColor" stroke-width="2" stroke-linecap="round" stroke-linejoin="round">
    <path d="M2.97 12.92A2 2 0 0 0 2 14.63v3.24a2 2 0 0 0 .97 1.71l3 1.8a2 2 0 0 0 2.06 0L12 19v-5.5l-5-3-4.03 2.42Z" />   <path d="m7 16.5-4.74-2.85" />   <path d="m7 16.5 5-3" />   <path d="M7 16.5v5.17" />   <path d="M12 13.5V19l3.97 2.38a2 2 0 0 0 2.06 0l3-1.8a2 2 0 0 0 .97-1.71v-3.24a2 2 0 0 0-.97-1.71L17 10.5l-5 3Z" />   <path d="m17 16.5-5-3" />   <path d="m17 16.5 4.74-2.85" />   <path d="M17 16.5v5.17" />   <path d="M7.97 4.42A2 2 0 0 0 7 6.13v4.37l5 3 5-3V6.13a2 2 0 0 0-.97-1.71l-3-1.8a2 2 0 0 0-2.06 0l-3 1.8Z" />   <path d="M12 8 7.26 5.15" />   <path d="m12 8 4.74-2.85" />   <path d="M12 13.5V8" />  
  </symbol>
  <symbol id="i-database" viewBox="0 0 24 24" fill="none" stroke="currentColor" stroke-width="2" stroke-linecap="round" stroke-linejoin="round">
    <ellipse cx="12" cy="5" rx="9" ry="3" />   <path d="M3 5V19A9 3 0 0 0 21 19V5" />   <path d="M3 12A9 3 0 0 0 21 12" />  
  </symbol>
  <symbol id="i-server-cog" viewBox="0 0 24 24" fill="none" stroke="currentColor" stroke-width="2" stroke-linecap="round" stroke-linejoin="round">
    <path d="M5 10H4a2 2 0 0 1-2-2V4a2 2 0 0 1 2-2h16a2 2 0 0 1 2 2v4a2 2 0 0 1-2 2h-1" />   <path d="M5 14H4a2 2 0 0 0-2 2v4a2 2 0 0 0 2 2h16a2 2 0 0 0 2-2v-4a2 2 0 0 0-2-2h-1" />   <path d="M6 6h.01" />   <path d="M6 18h.01" />   <circle cx="12" cy="12" r="3" />   <path d="M12 8v1" />   <path d="M12 15v1" />   <path d="M16 12h-1" />   <path d="M9 12H8" />   <path d="m15 9-.88.88" />   <path d="M9.88 14.12 9 15" />   <path d="m15 15-.88-.88" />   <path d="M9.88 9.88 9 9" />  
  </symbol>
  <symbol id="i-briefcase" viewBox="0 0 24 24" fill="none" stroke="currentColor" stroke-width="2" stroke-linecap="round" stroke-linejoin="round">
    <rect width="20" height="14" x="2" y="7" rx="2" ry="2" />   <path d="M16 21V5a2 2 0 0 0-2-2h-4a2 2 0 0 0-2 2v16" />  
  </symbol>
  <symbol id="i-timer" viewBox="0 0 24 24" fill="none" stroke="currentColor" stroke-width="2" stroke-linecap="round" stroke-linejoin="round">
    <line x1="10" x2="14" y1="2" y2="2" />   <line x1="12" x2="15" y1="14" y2="11" />   <circle cx="12" cy="14" r="8" />  
  </symbol>
  <symbol id="i-gauge" viewBox="0 0 24 24" fill="none" stroke="currentColor" stroke-width="2" stroke-linecap="round" stroke-linejoin="round">
    <path d="m12 14 4-4" />   <path d="M3.34 19a10 10 0 1 1 17.32 0" />  
  </symbol>
  <symbol id="i-file-cog" viewBox="0 0 24 24" fill="none" stroke="currentColor" stroke-width="2" stroke-linecap="round" stroke-linejoin="round">
    <path d="M4 6V4a2 2 0 0 1 2-2h8.5L20 7.5V20a2 2 0 0 1-2 2H4" />   <polyline points="14 2 14 8 20 8" />   <circle cx="6" cy="14" r="3" />   <path d="M6 10v1" />   <path d="M6 17v1" />   <path d="M10 14H9" />   <path d="M3 14H2" />   <path d="m9 11-.88.88" />   <path d="M3.88 16.12 3 17" />   <path d="m9 17-.88-.88" />   <path d="M3.88 11.88 3 11" />  
  </symbol>
  <symbol id="i-key-round" viewBox="0 0 24 24" fill="none" stroke="currentColor" stroke-width="2" stroke-linecap="round" stroke-linejoin="round">
    <path d="M2 18v3c0 .6.4 1 1 1h4v-3h3v-3h2l1.4-1.4a6.5 6.5 0 1 0-4-4Z" />   <circle cx="16.5" cy="7.5" r=".5" />  
  </symbol>
  <symbol id="i-hard-drive" viewBox="0 0 24 24" fill="none" stroke="currentColor" stroke-width="2" stroke-linecap="round" stroke-linejoin="round">
    <line x1="22" x2="2" y1="12" y2="12" />   <path d="M5.45 5.11 2 12v6a2 2 0 0 0 2 2h16a2 2 0 0 0 2-2v-6l-3.45-6.89A2 2 0 0 0 16.76 4H7.24a2 2 0 0 0-1.79 1.11z" />   <line x1="6" x2="6.01" y1="16" y2="16" />   <line x1="10" x2="10.01" y1="16" y2="16" />  
  </symbol>
  <symbol id="i-hard-drive-download" viewBox="0 0 24 24" fill="none" stroke="currentColor" stroke-width="2" stroke-linecap="round" stroke-linejoin="round">
    <path d="M12 2v8" />   <path d="m16 6-4 4-4-4" />   <rect width="20" height="8" x="2" y="14" rx="2" />   <path d="M6 18h.01" />   <path d="M10 18h.01" />  
  </symbol>
  <symbol id="i-disc" viewBox="0 0 24 24" fill="none" stroke="currentColor" stroke-width="2" stroke-linecap="round" stroke-linejoin="round">
    <circle cx="12" cy="12" r="10" />   <circle cx="12" cy="12" r="2" />  
  </symbol>
  <symbol id="i-network" viewBox="0 0 24 24" fill="none" stroke="currentColor" stroke-width="2" stroke-linecap="round" stroke-linejoin="round">
    <rect x="16" y="16" width="6" height="6" rx="1" />   <rect x="2" y="16" width="6" height="6" rx="1" />   <rect x="9" y="2" width="6" height="6" rx="1" />   <path d="M5 16v-3a1 1 0 0 1 1-1h12a1 1 0 0 1 1 1v3" />   <path d="M12 12V8" />  
  </symbol>
  <symbol id="i-globe" viewBox="0 0 24 24" fill="none" stroke="currentColor" stroke-width="2" stroke-linecap="round" stroke-linejoin="round">
    <circle cx="12" cy="12" r="10" />   <line x1="2" x2="22" y1="12" y2="12" />   <path d="M12 2a15.3 15.3 0 0 1 4 10 15.3 15.3 0 0 1-4 10 15.3 15.3 0 0 1-4-10 15.3 15.3 0 0 1 4-10z" />  
  </symbol>
  <symbol id="i-shield" viewBox="0 0 24 24" fill="none" stroke="currentColor" stroke-width="2" stroke-linecap="round" stroke-linejoin="round">
    <path d="M12 22s8-4 8-10V5l-8-3-8 3v7c0 6 8 10 8 10z" />  
  </symbol>
  <symbol id="i-cable" viewBox="0 0 24 24" fill="none" stroke="currentColor" stroke-width="2" stroke-linecap="round" stroke-linejoin="round">
    <path d="M4 9a2 2 0 0 1-2-2V5h6v2a2 2 0 0 1-2 2Z" />   <path d="M3 5V3" />   <path d="M7 5V3" />   <path d="M19 15V6.5a3.5 3.5 0 0 0-7 0v11a3.5 3.5 0 0 1-7 0V9" />   <path d="M17 21v-2" />   <path d="M21 21v-2" />   <path d="M22 19h-6v-2a2 2 0 0 1 2-2h2a2 2 0 0 1 2 2Z" />  
  </symbol>
  <symbol id="i-server" viewBox="0 0 24 24" fill="none" stroke="currentColor" stroke-width="2" stroke-linecap="round" stroke-linejoin="round">
    <rect width="20" height="8" x="2" y="2" rx="2" ry="2" />   <rect width="20" height="8" x="2" y="14" rx="2" ry="2" />   <line x1="6" x2="6.01" y1="6" y2="6" />   <line x1="6" x2="6.01" y1="18" y2="18" />  
  </symbol>
  <symbol id="i-folder" viewBox="0 0 24 24" fill="none" stroke="currentColor" stroke-width="2" stroke-linecap="round" stroke-linejoin="round">
    <path d="M4 20h16a2 2 0 0 0 2-2V8a2 2 0 0 0-2-2h-7.93a2 2 0 0 1-1.66-.9l-.82-1.2A2 2 0 0 0 7.93 3H4a2 2 0 0 0-2 2v13c0 1.1.9 2 2 2Z" />  
  </symbol>
  <symbol id="i-bell" viewBox="0 0 24 24" fill="none" stroke="currentColor" stroke-width="2" stroke-linecap="round" stroke-linejoin="round">
    <path d="M6 8a6 6 0 0 1 12 0c0 7 3 9 3 9H3s3-2 3-9" />   <path d="M10.3 21a1.94 1.94 0 0 0 3.4 0" />  
  </symbol>
  <symbol id="i-user-circle" viewBox="0 0 24 24" fill="none" stroke="currentColor" stroke-width="2" stroke-linecap="round" stroke-linejoin="round">
    <circle cx="12" cy="12" r="10" />   <circle cx="12" cy="10" r="3" />   <path d="M7 20.662V19a2 2 0 0 1 2-2h6a2 2 0 0 1 2 2v1.662" />  
  </symbol>
  <symbol id="i-shield-check" viewBox="0 0 24 24" fill="none" stroke="currentColor" stroke-width="2" stroke-linecap="round" stroke-linejoin="round">
    <path d="M12 22s8-4 8-10V5l-8-3-8 3v7c0 6 8 10 8 10z" />   <path d="m9 12 2 2 4-4" />  
  </symbol>
  <symbol id="i-shield-alert" viewBox="0 0 24 24" fill="none" stroke="currentColor" stroke-width="2" stroke-linecap="round" stroke-linejoin="round">
    <path d="M12 22s8-4 8-10V5l-8-3-8 3v7c0 6 8 10 8 10z" />   <path d="M12 8v4" />   <path d="M12 16h.01" />  
  </symbol>
  <symbol id="i-link" viewBox="0 0 24 24" fill="none" stroke="currentColor" stroke-width="2" stroke-linecap="round" stroke-linejoin="round">
    <path d="M10 13a5 5 0 0 0 7.54.54l3-3a5 5 0 0 0-7.07-7.07l-1.72 1.71" />   <path d="M14 11a5 5 0 0 0-7.54-.54l-3 3a5 5 0 0 0 7.07 7.07l1.71-1.71" />  
  </symbol>
  <symbol id="i-link-2" viewBox="0 0 24 24" fill="none" stroke="currentColor" stroke-width="2" stroke-linecap="round" stroke-linejoin="round">
    <path d="M9 17H7A5 5 0 0 1 7 7h2" />   <path d="M15 7h2a5 5 0 1 1 0 10h-2" />   <line x1="8" x2="16" y1="12" y2="12" />  
  </symbol>
  <symbol id="i-puzzle" viewBox="0 0 24 24" fill="none" stroke="currentColor" stroke-width="2" stroke-linecap="round" stroke-linejoin="round">
    <path d="M19.439 7.85c-.049.322.059.648.289.878l1.568 1.568c.47.47.706 1.087.706 1.704s-.235 1.233-.706 1.704l-1.611 1.611a.98.98 0 0 1-.837.276c-.47-.07-.802-.48-.968-.925a2.501 2.501 0 1 0-3.214 3.214c.446.166.855.497.925.968a.979.979 0 0 1-.276.837l-1.61 1.61a2.404 2.404 0 0 1-1.705.707 2.402 2.402 0 0 1-1.704-.706l-1.568-1.568a1.026 1.026 0 0 0-.877-.29c-.493.074-.84.504-1.02.968a2.5 2.5 0 1 1-3.237-3.237c.464-.18.894-.527.967-1.02a1.026 1.026 0 0 0-.289-.877l-1.568-1.568A2.402 2.402 0 0 1 1.998 12c0-.617.236-1.234.706-1.704L4.23 8.77c.24-.24.581-.353.917-.303.515.077.877.528 1.073 1.01a2.5 2.5 0 1 0 3.259-3.259c-.482-.196-.933-.558-1.01-1.073-.05-.336.062-.676.303-.917l1.525-1.525A2.402 2.402 0 0 1 12 1.998c.617 0 1.234.236 1.704.706l1.568 1.568c.23.23.556.338.877.29.493-.074.84-.504 1.02-.968a2.5 2.5 0 1 1 3.237 3.237c-.464.18-.894.527-.967 1.02Z" />  
  </symbol>
  <symbol id="i-help-circle" viewBox="0 0 24 24" fill="none" stroke="currentColor" stroke-width="2" stroke-linecap="round" stroke-linejoin="round">
    <circle cx="12" cy="12" r="10" />   <path d="M9.09 9a3 3 0 0 1 5.83 1c0 2-3 3-3 3" />   <path d="M12 17h.01" />  
  </symbol>
  <symbol id="i-search" viewBox="0 0 24 24" fill="none" stroke="currentColor" stroke-width="2" stroke-linecap="round" stroke-linejoin="round">
    <circle cx="11" cy="11" r="8" />   <path d="m21 21-4.3-4.3" />  
  </symbol>
  <symbol id="i-x" viewBox="0 0 24 24" fill="none" stroke="currentColor" stroke-width="2" stroke-linecap="round" stroke-linejoin="round">
    <path d="M18 6 6 18" />   <path d="m6 6 12 12" />  
  </symbol>
  <symbol id="i-maximize-2" viewBox="0 0 24 24" fill="none" stroke="currentColor" stroke-width="2" stroke-linecap="round" stroke-linejoin="round">
    <polyline points="15 3 21 3 21 9" />   <polyline points="9 21 3 21 3 15" />   <line x1="21" x2="14" y1="3" y2="10" />   <line x1="3" x2="10" y1="21" y2="14" />  
  </symbol>
  <symbol id="i-minimize-2" viewBox="0 0 24 24" fill="none" stroke="currentColor" stroke-width="2" stroke-linecap="round" stroke-linejoin="round">
    <polyline points="4 14 10 14 10 20" />   <polyline points="20 10 14 10 14 4" />   <line x1="14" x2="21" y1="10" y2="3" />   <line x1="3" x2="10" y1="21" y2="14" />  
  </symbol>
  <symbol id="i-copy" viewBox="0 0 24 24" fill="none" stroke="currentColor" stroke-width="2" stroke-linecap="round" stroke-linejoin="round">
    <rect width="14" height="14" x="8" y="8" rx="2" ry="2" />   <path d="M4 16c-1.1 0-2-.9-2-2V4c0-1.1.9-2 2-2h10c1.1 0 2 .9 2 2" />  
  </symbol>
  <symbol id="i-pencil" viewBox="0 0 24 24" fill="none" stroke="currentColor" stroke-width="2" stroke-linecap="round" stroke-linejoin="round">
    <path d="M17 3a2.85 2.83 0 1 1 4 4L7.5 20.5 2 22l1.5-5.5Z" />   <path d="m15 5 4 4" />  
  </symbol>
  <symbol id="i-trash-2" viewBox="0 0 24 24" fill="none" stroke="currentColor" stroke-width="2" stroke-linecap="round" stroke-linejoin="round">
    <path d="M3 6h18" />   <path d="M19 6v14c0 1-1 2-2 2H7c-1 0-2-1-2-2V6" />   <path d="M8 6V4c0-1 1-2 2-2h4c1 0 2 1 2 2v2" />   <line x1="10" x2="10" y1="11" y2="17" />   <line x1="14" x2="14" y1="11" y2="17" />  
  </symbol>
  <symbol id="i-rotate-cw" viewBox="0 0 24 24" fill="none" stroke="currentColor" stroke-width="2" stroke-linecap="round" stroke-linejoin="round">
    <path d="M21 12a9 9 0 1 1-9-9c2.52 0 4.93 1 6.74 2.74L21 8" />   <path d="M21 3v5h-5" />  
  </symbol>
  <symbol id="i-move-vertical" viewBox="0 0 24 24" fill="none" stroke="currentColor" stroke-width="2" stroke-linecap="round" stroke-linejoin="round">
    <polyline points="8 18 12 22 16 18" />   <polyline points="8 6 12 2 16 6" />   <line x1="12" x2="12" y1="2" y2="22" />  
  </symbol>
  <symbol id="i-file-text" viewBox="0 0 24 24" fill="none" stroke="currentColor" stroke-width="2" stroke-linecap="round" stroke-linejoin="round">
    <path d="M14.5 2H6a2 2 0 0 0-2 2v16a2 2 0 0 0 2 2h12a2 2 0 0 0 2-2V7.5L14.5 2z" />   <polyline points="14 2 14 8 20 8" />   <line x1="16" x2="8" y1="13" y2="13" />   <line x1="16" x2="8" y1="17" y2="17" />   <line x1="10" x2="8" y1="9" y2="9" />  
  </symbol>
  <symbol id="i-terminal" viewBox="0 0 24 24" fill="none" stroke="currentColor" stroke-width="2" stroke-linecap="round" stroke-linejoin="round">
    <polyline points="4 17 10 11 4 5" />   <line x1="12" x2="20" y1="19" y2="19" />  
  </symbol>
  <symbol id="i-refresh-cw" viewBox="0 0 24 24" fill="none" stroke="currentColor" stroke-width="2" stroke-linecap="round" stroke-linejoin="round">
    <path d="M3 12a9 9 0 0 1 9-9 9.75 9.75 0 0 1 6.74 2.74L21 8" />   <path d="M21 3v5h-5" />   <path d="M21 12a9 9 0 0 1-9 9 9.75 9.75 0 0 1-6.74-2.74L3 16" />   <path d="M8 16H3v5" />  
  </symbol>
  <symbol id="i-share-2" viewBox="0 0 24 24" fill="none" stroke="currentColor" stroke-width="2" stroke-linecap="round" stroke-linejoin="round">
    <circle cx="18" cy="5" r="3" />   <circle cx="6" cy="12" r="3" />   <circle cx="18" cy="19" r="3" />   <line x1="8.59" x2="15.42" y1="13.51" y2="17.49" />   <line x1="15.41" x2="8.59" y1="6.51" y2="10.49" />  
  </symbol>
  <symbol id="i-table" viewBox="0 0 24 24" fill="none" stroke="currentColor" stroke-width="2" stroke-linecap="round" stroke-linejoin="round">
    <path d="M12 3v18" />   <rect width="18" height="18" x="3" y="3" rx="2" />   <path d="M3 9h18" />   <path d="M3 15h18" />  
  </symbol>
  <symbol id="i-chevron-right" viewBox="0 0 24 24" fill="none" stroke="currentColor" stroke-width="2" stroke-linecap="round" stroke-linejoin="round">
    <path d="m9 18 6-6-6-6" />  
  </symbol>
  <symbol id="i-chevron-left" viewBox="0 0 24 24" fill="none" stroke="currentColor" stroke-width="2" stroke-linecap="round" stroke-linejoin="round">
    <path d="m15 18-6-6 6-6" />  
  </symbol>
  <symbol id="i-chevron-up" viewBox="0 0 24 24" fill="none" stroke="currentColor" stroke-width="2" stroke-linecap="round" stroke-linejoin="round">
    <path d="m18 15-6-6-6 6" />  
  </symbol>
  <symbol id="i-chevron-down" viewBox="0 0 24 24" fill="none" stroke="currentColor" stroke-width="2" stroke-linecap="round" stroke-linejoin="round">
    <path d="m6 9 6 6 6-6" />  
  </symbol>
  <symbol id="i-clock" viewBox="0 0 24 24" fill="none" stroke="currentColor" stroke-width="2" stroke-linecap="round" stroke-linejoin="round">
    <circle cx="12" cy="12" r="10" />   <polyline points="12 6 12 12 16 14" />  
  </symbol>
  <symbol id="i-info" viewBox="0 0 24 24" fill="none" stroke="currentColor" stroke-width="2" stroke-linecap="round" stroke-linejoin="round">
    <circle cx="12" cy="12" r="10" />   <path d="M12 16v-4" />   <path d="M12 8h.01" />  
  </symbol>
  <symbol id="i-sun" viewBox="0 0 24 24" fill="none" stroke="currentColor" stroke-width="2" stroke-linecap="round" stroke-linejoin="round">
    <circle cx="12" cy="12" r="4" />   <path d="M12 2v2" />   <path d="M12 20v2" />   <path d="m4.93 4.93 1.41 1.41" />   <path d="m17.66 17.66 1.41 1.41" />   <path d="M2 12h2" />   <path d="M20 12h2" />   <path d="m6.34 17.66-1.41 1.41" />   <path d="m19.07 4.93-1.41 1.41" />  
  </symbol>
  <symbol id="i-moon" viewBox="0 0 24 24" fill="none" stroke="currentColor" stroke-width="2" stroke-linecap="round" stroke-linejoin="round">
    <path d="M12 3a6 6 0 0 0 9 9 9 9 0 1 1-9-9Z" />  
  </symbol>
  <symbol id="i-github" viewBox="0 0 24 24" fill="none" stroke="currentColor" stroke-width="2" stroke-linecap="round" stroke-linejoin="round">
    <path d="M15 22v-4a4.8 4.8 0 0 0-1-3.5c3 0 6-2 6-5.5.08-1.25-.27-2.48-1-3.5.28-1.15.28-2.35 0-3.5 0 0-1 0-3 1.5-2.64-.5-5.36-.5-8 0C6 2 5 2 5 2c-.3 1.15-.3 2.35 0 3.5A5.403 5.403 0 0 0 4 9c0 3.5 3 5.5 6 5.5-.39.49-.68 1.05-.85 1.65-.17.6-.22 1.23-.15 1.85v4" />   <path d="M9 18c-4.51 2-5-2-7-2" />  
  </symbol>
  <symbol id="i-more-horizontal" viewBox="0 0 24 24" fill="none" stroke="currentColor" stroke-width="2" stroke-linecap="round" stroke-linejoin="round">
    <circle cx="12" cy="12" r="1" />   <circle cx="19" cy="12" r="1" />   <circle cx="5" cy="12" r="1" />  
  </symbol>
  <symbol id="i-code" viewBox="0 0 24 24" fill="none" stroke="currentColor" stroke-width="2" stroke-linecap="round" stroke-linejoin="round">
    <polyline points="16 18 22 12 16 6" />   <polyline points="8 6 2 12 8 18" />  
  </symbol>
  <symbol id="i-crosshair" viewBox="0 0 24 24" fill="none" stroke="currentColor" stroke-width="2" stroke-linecap="round" stroke-linejoin="round">
    <circle cx="12" cy="12" r="10" />   <line x1="22" x2="18" y1="12" y2="12" />   <line x1="6" x2="2" y1="12" y2="12" />   <line x1="12" x2="12" y1="6" y2="2" />   <line x1="12" x2="12" y1="22" y2="18" />  
  </symbol>
  <symbol id="i-maximize" viewBox="0 0 24 24" fill="none" stroke="currentColor" stroke-width="2" stroke-linecap="round" stroke-linejoin="round">
    <path d="M8 3H5a2 2 0 0 0-2 2v3" />   <path d="M21 8V5a2 2 0 0 0-2-2h-3" />   <path d="M3 16v3a2 2 0 0 0 2 2h3" />   <path d="M16 21h3a2 2 0 0 0 2-2v-3" />  
  </symbol>
  <symbol id="i-history" viewBox="0 0 24 24" fill="none" stroke="currentColor" stroke-width="2" stroke-linecap="round" stroke-linejoin="round">
    <path d="M3 12a9 9 0 1 0 9-9 9.75 9.75 0 0 0-6.74 2.74L3 8" />   <path d="M3 3v5h5" />   <path d="M12 7v5l4 2" />  
  </symbol>
  <symbol id="i-circle-dot" viewBox="0 0 24 24" fill="none" stroke="currentColor" stroke-width="2" stroke-linecap="round" stroke-linejoin="round">
    <circle cx="12" cy="12" r="10" />   <circle cx="12" cy="12" r="1" />  
  </symbol>
  <symbol id="i-check" viewBox="0 0 24 24" fill="none" stroke="currentColor" stroke-width="2" stroke-linecap="round" stroke-linejoin="round">
    <polyline points="20 6 9 17 4 12" />  
  </symbol>
</svg>
