<svg xmlns="http://www.w3.org/2000/svg" viewBox="4 4 24 24" width="32" height="32" role="img" aria-label="KubeAtlas">
  <title>KubeAtlas favicon</title>
  <style>
    .edge { stroke: #2563eb; }
    .top-fill { fill: #7c3aed; }
    @media (prefers-color-scheme: dark) {
      .edge { stroke: #3b82f6; }
      .top-fill { fill: #8b5cf6; }
    }
  </style>
  <!-- coordinates scaled from 400-space (×0.08): top(16,7.2), TR(23.6,11.6), BR(23.6,20.4), bottom(16,24.8), BL(8.4,20.4), TL(8.4,11.6), center(16,16) -->
  <g class="edge" stroke-width="0.9" stroke-dasharray="1.2 0.8" fill="none">
    <line x1="16" y1="16" x2="16"   y2="7.2"/>
    <line x1="16" y1="16" x2="23.6" y2="11.6"/>
    <line x1="16" y1="16" x2="23.6" y2="20.4"/>
    <line x1="16" y1="16" x2="16"   y2="24.8"/>
    <line x1="16" y1="16" x2="8.4"  y2="20.4"/>
    <line x1="16" y1="16" x2="8.4"  y2="11.6"/>
    <line x1="16"   y1="7.2"  x2="23.6" y2="11.6"/>
    <line x1="23.6" y1="11.6" x2="23.6" y2="20.4"/>
    <line x1="23.6" y1="20.4" x2="16"   y2="24.8"/>
    <line x1="16"   y1="24.8" x2="8.4"  y2="20.4"/>
    <line x1="8.4"  y1="20.4" x2="8.4"  y2="11.6"/>
    <line x1="8.4"  y1="11.6" x2="16"   y2="7.2"/>
  </g>
  <circle cx="16"   cy="7.2"  r="2.4" class="top-fill"/>
  <circle cx="23.6" cy="11.6" r="2.4" fill="#a855f7"/>
  <circle cx="23.6" cy="20.4" r="2.4" fill="#7c3aed"/>
  <circle cx="16"   cy="24.8" r="2.4" fill="#10b981"/>
  <circle cx="8.4"  cy="20.4" r="2.4" fill="#06b6d4"/>
  <circle cx="8.4"  cy="11.6" r="2.4" fill="#22d3ee"/>
  <circle cx="16"   cy="16"   r="2.6" fill="#34d399"/>
</svg>
