<?xml version="1.0" encoding="UTF-8" standalone="no"?>
<svg
   viewBox="0 0 1200 630"
   width="1200"
   height="630"
   role="img"
   aria-label="KubeAtlas — See your whole Kubernetes cluster at a glance."
   version="1.1"
   id="svg36"
   sodipodi:docname="og-card.svg"
   inkscape:version="1.4.4 (dcaf3e7d9e, 2026-05-05)"
   xmlns:inkscape="http://www.inkscape.org/namespaces/inkscape"
   xmlns:sodipodi="http://sodipodi.sourceforge.net/DTD/sodipodi-0.dtd"
   xmlns="http://www.w3.org/2000/svg"
   xmlns:svg="http://www.w3.org/2000/svg">
  <sodipodi:namedview
     id="namedview1"
     pagecolor="#ffffff"
     bordercolor="#000000"
     borderopacity="0.25"
     inkscape:showpageshadow="2"
     inkscape:pageopacity="0.0"
     inkscape:pagecheckerboard="0"
     inkscape:deskcolor="#d1d1d1"
     inkscape:zoom="0.87095367"
     inkscape:cx="476.48918"
     inkscape:cy="382.91359"
     inkscape:window-width="1898"
     inkscape:window-height="1137"
     inkscape:window-x="0"
     inkscape:window-y="0"
     inkscape:window-maximized="1"
     inkscape:current-layer="g1" />
  <title
     id="title1">KubeAtlas social card</title>
  <desc
     id="desc1">Hexagon-mesh dark surface with the KubeAtlas hex-network mark, lowercase kubeatlas wordmark, and the tagline &quot;See your whole Kubernetes cluster at a glance.&quot;</desc>
  <defs
     id="defs9">
    <polygon
       id="ka-hex"
       points="0,-34.641 30,-17.321 30,17.321 0,34.641 -30,17.321 -30,-17.321" />
    <pattern
       id="ka-mesh"
       patternUnits="userSpaceOnUse"
       width="60"
       height="103.923"
       patternTransform="translate(34 -7)">
      <g
         fill="none"
         stroke="#1b2230"
         stroke-width="1"
         stroke-linejoin="round"
         opacity="0.55"
         id="g9">
        <use
           href="#ka-hex"
           x="0"
           y="0"
           id="use1" />
        <use
           href="#ka-hex"
           x="60"
           y="0"
           id="use2" />
        <use
           href="#ka-hex"
           x="0"
           y="103.923"
           id="use3" />
        <use
           href="#ka-hex"
           x="60"
           y="103.923"
           id="use4" />
        <use
           href="#ka-hex"
           x="30"
           y="51.962"
           id="use5" />
        <use
           href="#ka-hex"
           x="-30"
           y="51.962"
           id="use6" />
        <use
           href="#ka-hex"
           x="90"
           y="51.962"
           id="use7" />
        <use
           href="#ka-hex"
           x="30"
           y="-51.962"
           id="use8" />
        <use
           href="#ka-hex"
           x="30"
           y="155.885"
           id="use9" />
      </g>
    </pattern>
  </defs>
  <path
     id="rect9"
     style="fill:#0d1117"
     d="M 0,0 H 1200 V 630 H 0 Z" />
  <!-- Mark + wordmark are centered as one composition.
       Mark visible content: 188px wide × 211px tall (after scale 0.775 of 400-space).
       Wordmark "kubeatlas" at 95pt Inter 800 (-2 letter-spacing): ~410px wide.
       Composition total = 188 + 50 (gap) + 410 = 648 wide. Centered: left = (1200-648)/2 = 276.
       Mark translate.x = 276 - 79*0.775 ≈ 215 (where x=79 is the leftmost visible point in 400-space).
       Mark translate.y: visual center at y=290 (slightly above mid to leave room for tagline) → translate.y = 290 - 200*0.775 = 135.
       Wordmark left edge x = 276 + 188 + 50 = 514. Baseline y so optical center sits at y=290: 290 + cap-height/2 ≈ 290 + 34 = 324. -->
  <g
     id="g1">
    <path
       id="rect10"
       style="fill:url(#ka-mesh)"
       d="M 0,0 H 1200 V 630 H 0 Z" />
    <g
       transform="matrix(1.135427,0,0,1.1229293,34.99766,88.879802)"
       id="g34">
      <g
         stroke="#3b82f6"
         stroke-width="2"
         stroke-dasharray="6, 4"
         fill="none"
         id="g21">
        <path
           id="line10"
           d="M 200,200 V 90" />
        <path
           id="line11"
           d="m 200,200 95,-55" />
        <path
           id="line12"
           d="m 200,200 95,55" />
        <path
           id="line13"
           d="M 200,200 V 310" />
        <path
           id="line14"
           d="m 200,200 -95,55" />
        <path
           id="line15"
           d="M 200,200 105,145" />
        <path
           id="line16"
           d="m 200,90 95,55" />
        <path
           id="line17"
           d="M 295,145 V 255" />
        <path
           id="line18"
           d="m 295,255 -95,55" />
        <path
           id="line19"
           d="M 200,310 105,255" />
        <path
           id="line20"
           d="M 105,255 V 145" />
        <path
           id="line21"
           d="M 105,145 200,90" />
      </g>
      <g
         opacity="0.22"
         id="g27">
        <path
           id="circle21"
           style="fill:#8b5cf6"
           d="m 222,90 a 22,22 0 0 1 -22,22 22,22 0 0 1 -22,-22 22,22 0 0 1 22,-22 22,22 0 0 1 22,22 z" />
        <path
           id="circle22"
           style="fill:#a855f7"
           d="m 317,145 a 22,22 0 0 1 -22,22 22,22 0 0 1 -22,-22 22,22 0 0 1 22,-22 22,22 0 0 1 22,22 z" />
        <path
           id="circle23"
           style="fill:#7c3aed"
           d="m 317,255 a 22,22 0 0 1 -22,22 22,22 0 0 1 -22,-22 22,22 0 0 1 22,-22 22,22 0 0 1 22,22 z" />
        <path
           id="circle24"
           style="fill:#10b981"
           d="m 222,310 a 22,22 0 0 1 -22,22 22,22 0 0 1 -22,-22 22,22 0 0 1 22,-22 22,22 0 0 1 22,22 z" />
        <path
           id="circle25"
           style="fill:#06b6d4"
           d="m 127,255 a 22,22 0 0 1 -22,22 22,22 0 0 1 -22,-22 22,22 0 0 1 22,-22 22,22 0 0 1 22,22 z" />
        <path
           id="circle26"
           style="fill:#22d3ee"
           d="m 127,145 a 22,22 0 0 1 -22,22 22,22 0 0 1 -22,-22 22,22 0 0 1 22,-22 22,22 0 0 1 22,22 z" />
        <path
           id="circle27"
           style="fill:#34d399"
           d="m 224,200 a 24,24 0 0 1 -24,24 24,24 0 0 1 -24,-24 24,24 0 0 1 24,-24 24,24 0 0 1 24,24 z" />
      </g>
      <path
         id="circle28"
         style="fill:#8b5cf6"
         d="m 218,90 a 18,18 0 0 1 -18,18 18,18 0 0 1 -18,-18 18,18 0 0 1 18,-18 18,18 0 0 1 18,18 z" />
      <path
         id="circle29"
         style="fill:#a855f7"
         d="m 313,145 a 18,18 0 0 1 -18,18 18,18 0 0 1 -18,-18 18,18 0 0 1 18,-18 18,18 0 0 1 18,18 z" />
      <path
         id="circle30"
         style="fill:#7c3aed"
         d="m 313,255 a 18,18 0 0 1 -18,18 18,18 0 0 1 -18,-18 18,18 0 0 1 18,-18 18,18 0 0 1 18,18 z" />
      <path
         id="circle31"
         style="fill:#10b981"
         d="m 218,310 a 18,18 0 0 1 -18,18 18,18 0 0 1 -18,-18 18,18 0 0 1 18,-18 18,18 0 0 1 18,18 z" />
      <path
         id="circle32"
         style="fill:#06b6d4"
         d="m 123,255 a 18,18 0 0 1 -18,18 18,18 0 0 1 -18,-18 18,18 0 0 1 18,-18 18,18 0 0 1 18,18 z" />
      <path
         id="circle33"
         style="fill:#22d3ee"
         d="m 123,145 a 18,18 0 0 1 -18,18 18,18 0 0 1 -18,-18 18,18 0 0 1 18,-18 18,18 0 0 1 18,18 z" />
      <path
         id="circle34"
         style="fill:#34d399"
         d="m 219,200 a 19,19 0 0 1 -19,19 19,19 0 0 1 -19,-19 19,19 0 0 1 19,-19 19,19 0 0 1 19,19 z" />
    </g>
    <g
       id="text35"
       style="font-weight:800;font-size:95px;font-family:Inter, 'Helvetica Neue', Arial, system-ui, sans-serif;letter-spacing:-2"
       aria-label="kubeatlas"
       transform="matrix(1.465067,0,0,1.4489411,-346.77804,-129.23817)">
      <path
         style="fill:#ffffff"
         d="m 533.94629,310.22314 v -19.34326 h 2.31933 l 14.84375,-18.74023 h 18.41553 l -21.75537,26.57959 h -4.26758 z M 519.33447,324 v -69.11621 h 16.18897 V 324 Z m 32.23877,0 L 537.75,302.3374 548.41895,290.8335 570.26709,324 Z m 40.07276,0.64941 q -5.42725,0 -9.50928,-2.41211 -4.03565,-2.4121 -6.26221,-6.81884 -2.22656,-4.40674 -2.22656,-10.25147 v -33.02734 h 16.18896 v 29.87305 q 0,4.36035 2.22657,6.86523 2.27295,2.4585 6.21582,2.4585 2.69043,0 4.63867,-1.11329 1.99463,-1.15966 3.10791,-3.29345 1.11328,-2.18018 1.11328,-5.19532 v -29.59472 h 16.18896 V 324 h -15.21484 l -0.27832,-13.08105 h 0.6958 q -1.94824,6.21582 -6.03027,9.97314 -4.08203,3.75732 -10.85449,3.75732 z m 71.47656,0.0928 q -3.94287,0 -6.86524,-1.29883 -2.87597,-1.34522 -4.77783,-3.43262 -1.90185,-2.0874 -2.92236,-4.40674 h -0.55664 V 324 h -16.00342 v -69.11621 h 16.18897 v 26.16211 h 0.37109 q 0.97412,-2.36572 2.82959,-4.5459 1.90185,-2.18018 4.77783,-3.57178 2.92236,-1.43799 7.05078,-1.43799 5.47363,0 10.15869,2.87598 4.73145,2.82959 7.60743,8.76709 2.92236,5.89111 2.92236,14.98291 0,8.81348 -2.7832,14.75098 -2.78321,5.89111 -7.51465,8.90625 -4.73145,2.96875 -10.4834,2.96875 z M 657.60254,312.125 q 3.10791,0 5.2417,-1.71631 2.18017,-1.76269 3.29346,-4.91699 1.11328,-3.20068 1.11328,-7.37549 0,-4.22119 -1.11328,-7.3291 -1.11329,-3.1543 -3.24708,-4.87061 -2.13378,-1.76269 -5.28808,-1.76269 -3.10791,0 -5.28809,1.71631 -2.18017,1.66992 -3.33984,4.82422 -1.15967,3.10791 -1.15967,7.42187 0,4.22119 1.15967,7.37549 1.15967,3.1543 3.33984,4.91699 2.22657,1.71631 5.28809,1.71631 z m 57.14307,12.84912 q -8.11768,0 -14.00879,-3.20068 -5.89112,-3.24707 -9.04541,-9.23096 -3.10791,-5.98389 -3.10791,-14.28711 0,-7.97851 3.10791,-14.00879 3.15429,-6.03027 8.90625,-9.37012 5.75195,-3.38623 13.54492,-3.38623 5.47363,0 10.01953,1.71631 4.59228,1.71631 7.93213,5.10254 3.38623,3.33985 5.19531,8.25684 1.85547,4.91699 1.85547,11.36474 v 4.08204 h -44.80957 v -9.41651 h 37.10937 l -7.56103,2.22656 q 0,-3.61816 -1.11328,-6.21582 -1.0669,-2.59765 -3.20069,-3.98925 -2.13378,-1.39161 -5.28808,-1.39161 -3.1543,0 -5.33447,1.43799 -2.18018,1.3916 -3.33985,3.94287 -1.11328,2.50489 -1.11328,5.89112 v 6.77246 q 0,3.98926 1.29883,6.67969 1.34521,2.64404 3.71094,3.98925 2.36572,1.29883 5.52002,1.29883 2.18017,0 3.94287,-0.60303 1.80908,-0.60302 3.06152,-1.80908 1.29883,-1.20605 1.94824,-2.92236 l 14.42627,2.36572 q -1.29883,4.45313 -4.49951,7.79297 -3.1543,3.29346 -8.0249,5.10254 -4.82422,1.80908 -11.13281,1.80908 z"
         id="path36" />
      <path
         style="fill:#60a5fa"
         d="m 760.15283,324.92773 q -4.96338,0 -8.85986,-1.66992 -3.8501,-1.71631 -6.03027,-5.10254 -2.18018,-3.43261 -2.18018,-8.53515 0,-4.31397 1.48437,-7.28272 1.53077,-2.96875 4.2212,-4.82422 2.69043,-1.85547 6.16943,-2.82959 3.479,-0.97412 7.42187,-1.29882 4.40674,-0.3711 7.09717,-0.78858 2.69043,-0.46387 3.94287,-1.34521 1.25244,-0.88135 1.25244,-2.4585 v -0.18555 q 0,-1.80908 -0.83496,-3.06152 -0.83496,-1.25244 -2.41211,-1.90186 -1.57714,-0.64941 -3.80371,-0.64941 -2.22656,0 -3.98925,0.64941 -1.71631,0.64942 -2.82959,1.85547 -1.11329,1.20606 -1.57715,2.82959 l -14.65821,-1.90185 q 1.02051,-4.45313 3.98926,-7.79297 3.01514,-3.38623 7.83936,-5.2417 4.8706,-1.90186 11.36474,-1.90186 4.82422,0 8.99903,1.15967 4.22119,1.11328 7.37549,3.33985 3.15429,2.18017 4.91699,5.42724 1.76269,3.20069 1.76269,7.37549 V 324 h -15.21484 v -7.28271 h -0.41748 q -1.3916,2.69042 -3.57178,4.49951 -2.13379,1.80908 -5.00976,2.7832 -2.82959,0.92773 -6.44776,0.92773 z m 4.91699,-10.71533 q 2.73682,0 4.917,-1.11328 2.22656,-1.11328 3.52539,-3.06152 1.29883,-1.94824 1.29883,-4.49951 v -4.96338 q -0.69581,0.37109 -1.7627,0.6958 -1.02051,0.3247 -2.27295,0.60303 -1.25244,0.23193 -2.50488,0.46386 -1.25244,0.18555 -2.41211,0.3711 -2.36572,0.3247 -4.03565,1.11328 -1.66992,0.78857 -2.55127,2.04101 -0.88134,1.25244 -0.88134,3.01514 0,1.71631 0.88134,2.92236 0.88135,1.15967 2.36573,1.80908 1.48437,0.60303 3.43261,0.60303 z m 62.43116,-42.07275 v 12.01416 h -32.37793 v -12.01416 z m -25.5127,-12.33887 h 16.18897 v 48.33496 q 0,2.04102 0.97412,3.06153 0.97412,0.97412 3.15429,0.97412 0.83496,0 2.31934,-0.18555 1.53076,-0.18555 2.18018,-0.37109 l 2.0874,11.78222 q -2.73682,0.78858 -5.28809,1.0669 -2.55127,0.27832 -4.82422,0.27832 -8.25683,0 -12.52441,-3.8501 -4.26758,-3.89648 -4.26758,-11.31836 z m 48.37598,-4.91699 V 324 h -16.18897 v -69.11621 z m 23.23437,70.04394 q -4.96338,0 -8.85986,-1.66992 -3.8501,-1.71631 -6.03027,-5.10254 -2.18018,-3.43261 -2.18018,-8.53515 0,-4.31397 1.48438,-7.28272 1.53076,-2.96875 4.22119,-4.82422 2.69043,-1.85547 6.16943,-2.82959 3.479,-0.97412 7.42188,-1.29882 4.40673,-0.3711 7.09716,-0.78858 2.69043,-0.46387 3.94287,-1.34521 1.25245,-0.88135 1.25245,-2.4585 v -0.18555 q 0,-1.80908 -0.83497,-3.06152 -0.83496,-1.25244 -2.4121,-1.90186 -1.57715,-0.64941 -3.80372,-0.64941 -2.22656,0 -3.98925,0.64941 -1.71631,0.64942 -2.82959,1.85547 -1.11328,1.20606 -1.57715,2.82959 l -14.6582,-1.90185 q 1.0205,-4.45313 3.98925,-7.79297 3.01514,-3.38623 7.83936,-5.2417 4.8706,-1.90186 11.36474,-1.90186 4.82422,0 8.99903,1.15967 4.22119,1.11328 7.37549,3.33985 3.15429,2.18017 4.91699,5.42724 1.76269,3.20069 1.76269,7.37549 V 324 h -15.21484 v -7.28271 h -0.41748 q -1.3916,2.69042 -3.57178,4.49951 -2.13379,1.80908 -5.00976,2.7832 -2.82959,0.92773 -6.44776,0.92773 z m 4.91699,-10.71533 q 2.73682,0 4.917,-1.11328 2.22656,-1.11328 3.52539,-3.06152 1.29883,-1.94824 1.29883,-4.49951 v -4.96338 q -0.6958,0.37109 -1.7627,0.6958 -1.02051,0.3247 -2.27295,0.60303 -1.25244,0.23193 -2.50488,0.46386 -1.25244,0.18555 -2.41211,0.3711 -2.36572,0.3247 -4.03565,1.11328 -1.66992,0.78857 -2.55126,2.04101 -0.88135,1.25244 -0.88135,3.01514 0,1.71631 0.88135,2.92236 0.88134,1.15967 2.36572,1.80908 1.48437,0.60303 3.43261,0.60303 z m 56.30811,10.76172 q -6.6333,0 -11.73584,-1.85547 -5.10254,-1.90185 -8.30322,-5.42724 -3.20069,-3.57178 -4.12842,-8.53516 l 15.0293,-2.36572 q 0.97412,3.38623 3.29345,5.10254 2.31934,1.7163 6.44776,1.7163 3.38623,0 5.33447,-1.15966 1.94824,-1.20606 1.94824,-3.1543 0,-1.80908 -1.57715,-2.87598 -1.53076,-1.11328 -4.77783,-1.76269 l -9.04541,-1.7627 q -7.70019,-1.48437 -11.55029,-5.19531 -3.80371,-3.75732 -3.80371,-9.74121 0,-5.19531 2.7832,-8.85986 2.82959,-3.66455 7.93213,-5.6128 5.14893,-1.99463 12.10693,-1.99463 6.49414,0 11.27198,1.7627 4.82422,1.71631 7.74658,4.96338 2.96875,3.20068 3.8501,7.65381 l -14.28711,2.27295 q -0.6958,-2.59766 -2.87598,-4.03565 -2.13379,-1.48437 -5.42725,-1.48437 -2.92236,0 -4.96337,1.20605 -1.99463,1.15967 -1.99463,3.1543 0,1.57715 1.25244,2.7832 1.25244,1.15967 4.59228,1.80908 l 9.92676,1.85547 q 7.7002,1.48438 11.45752,4.91699 3.80371,3.43262 3.80371,9.0918 0,5.33447 -3.1543,9.27735 -3.10791,3.94287 -8.58154,6.12304 -5.47363,2.13379 -12.5708,2.13379 z"
         id="path37" />
    </g>
    <path
       d="m 423.58406,367.84703 q -0.14697,-1.40681 -1.23883,-2.19079 -1.08136,-0.78395 -2.81365,-0.78395 -1.21783,0 -2.08922,0.37587 -0.87141,0.37587 -1.33333,1.02022 -0.46195,0.64436 -0.47244,1.47126 0,0.68731 0.30446,1.19205 0.31496,0.50473 0.85038,0.85912 0.53544,0.34366 1.18635,0.57991 0.65093,0.23627 1.31234,0.39734 l 2.01575,0.51549 q 1.21784,0.28995 2.34118,0.78395 1.13386,0.49402 2.02624,1.24575 0.90289,0.75174 1.42784,1.8149 0.52492,1.06318 0.52492,2.49149 0,1.93305 -0.96589,3.40431 -0.96586,1.46051 -2.79262,2.28743 -1.81627,0.81616 -4.39894,0.81616 -2.50919,0 -4.35696,-0.7947 -1.83725,-0.79468 -2.87663,-2.31962 -1.02885,-1.52498 -1.11285,-3.71575 h 3.83201 q 0.0841,1.14909 0.69291,1.91156 0.60893,0.76247 1.5853,1.13836 0.98689,0.37585 2.20472,0.37585 1.27034,0 2.22572,-0.3866 0.96588,-0.39735 1.5118,-1.09541 0.54592,-0.70877 0.55643,-1.6538 -0.0105,-0.85915 -0.49344,-1.41757 -0.48294,-0.56917 -1.35433,-0.94505 -0.86087,-0.3866 -2.01574,-0.6873 l -2.44619,-0.64436 q -2.65615,-0.69801 -4.19947,-2.11559 -1.5328,-1.42833 -1.5328,-3.79092 0,-1.94378 1.02886,-3.40429 1.03938,-1.46052 2.82416,-2.26598 1.78477,-0.81617 4.04198,-0.81617 2.28871,0 4.0105,0.81617 1.73225,0.80546 2.71914,2.24448 0.98688,1.4283 1.01838,3.28618 z m 14.21679,16.26979 q -2.42519,0 -4.18897,-1.03097 -1.75328,-1.0417 -2.69816,-2.94251 -0.94486,-1.91155 -0.94486,-4.4997 0,-2.54517 0.94486,-4.46748 0.95537,-1.93303 2.66668,-3.00697 1.71126,-1.08464 4.02097,-1.08464 1.49081,0 2.81364,0.494 1.33332,0.48325 2.35171,1.50349 1.02887,1.02021 1.6168,2.59886 0.58791,1.56792 0.58791,3.73722 v 1.19204 h -13.21781 v -2.62034 h 9.57478 q -0.0105,-1.11688 -0.47244,-1.98673 -0.46194,-0.88063 -1.29133,-1.38537 -0.81891,-0.50474 -1.91075,-0.50474 -1.16536,0 -2.04724,0.57993 -0.8819,0.56917 -1.37533,1.50346 -0.48293,0.92358 -0.49343,2.0297 v 2.28745 q 0,1.43903 0.51441,2.46998 0.51445,1.02023 1.43833,1.56792 0.92388,0.53696 2.16273,0.53696 0.82939,0 1.5013,-0.23627 0.67192,-0.247 1.16535,-0.71952 0.49345,-0.47253 0.7454,-1.17058 l 3.54857,0.40811 q -0.33597,1.43903 -1.28085,2.51294 -0.93438,1.06318 -2.3937,1.65386 -1.45929,0.5799 -3.33857,0.5799 z m 17.2614,0 q -2.4252,0 -4.18898,-1.03097 -1.75326,-1.0417 -2.69816,-2.94251 -0.94488,-1.91155 -0.94488,-4.4997 0,-2.54517 0.94488,-4.46748 0.95539,-1.93303 2.66666,-3.00697 1.71128,-1.08464 4.021,-1.08464 1.4908,0 2.81363,0.494 1.33334,0.48325 2.35171,1.50349 1.02887,1.02021 1.61678,2.59886 0.58795,1.56792 0.58795,3.73722 v 1.19204 h -13.21783 v -2.62034 h 9.57478 q -0.0105,-1.11688 -0.47244,-1.98673 -0.46194,-0.88063 -1.29133,-1.38537 -0.81891,-0.50474 -1.91076,-0.50474 -1.16535,0 -2.04723,0.57993 -0.8819,0.56917 -1.37533,1.50346 -0.48293,0.92358 -0.49343,2.0297 v 2.28745 q 0,1.43903 0.51443,2.46998 0.51442,1.02023 1.43831,1.56792 0.92388,0.53696 2.16273,0.53696 0.82939,0 1.50131,-0.23627 0.67191,-0.247 1.16534,-0.71952 0.49344,-0.47253 0.74541,-1.17058 l 3.54854,0.40811 q -0.33595,1.43903 -1.28083,2.51294 -0.93439,1.06318 -2.3937,1.65386 -1.4593,0.5799 -3.33856,0.5799 z m 19.56217,5.86356 q -0.77689,0 -1.43831,-0.12895 -0.65092,-0.11809 -1.03937,-0.27922 l 0.88189,-3.02843 q 0.8294,0.24701 1.48031,0.23625 0.65093,-0.0106 1.14437,-0.41881 0.50393,-0.39735 0.85038,-1.33165 l 0.32545,-0.89136 -5.84776,-16.83896 h 4.03151 l 3.71653,12.45739 h 0.16795 l 3.72703,-12.45739 h 4.04201 l -6.45669,18.49279 q -0.45144,1.31018 -1.19683,2.24451 -0.74543,0.94502 -1.82678,1.43902 -1.07087,0.50474 -2.56169,0.50474 z m 20.88345,-5.86356 q -2.36219,0 -4.09449,-1.06319 -1.73226,-1.06317 -2.68764,-2.97473 -0.9449,-1.91158 -0.9449,-4.46746 0,-2.55592 0.9449,-4.47824 0.95538,-1.9223 2.68764,-2.98548 1.7323,-1.06317 4.09449,-1.06317 2.3622,0 4.09447,1.06317 1.73229,1.06318 2.67718,2.98548 0.95536,1.92232 0.95536,4.47824 0,2.55588 -0.95536,4.46746 -0.94489,1.91156 -2.67718,2.97473 -1.73227,1.06319 -4.09447,1.06319 z m 0.0209,-3.11435 q 1.28083,0 2.14172,-0.71953 0.8609,-0.73025 1.28085,-1.95452 0.43043,-1.22427 0.43043,-2.72773 0,-1.51422 -0.43043,-2.73849 -0.41995,-1.23498 -1.28085,-1.96525 -0.86089,-0.73026 -2.14172,-0.73026 -1.31233,0 -2.18373,0.73026 -0.86089,0.73027 -1.29133,1.96525 -0.41994,1.22427 -0.41994,2.73849 0,1.50346 0.41994,2.72773 0.43044,1.22427 1.29133,1.95452 0.8714,0.71953 2.18373,0.71953 z m 20.93594,-4.14532 v -9.55782 h 3.80052 v 16.49532 h -3.68504 v -2.93179 h -0.16798 q -0.54592,1.38534 -1.79527,2.26596 -1.23883,0.88061 -3.05513,0.88061 -1.58529,0 -2.80312,-0.71952 -1.20735,-0.73027 -1.88978,-2.11561 -0.68239,-1.3961 -0.68239,-3.3721 v -10.50287 h 3.8005 v 9.9015 q 0,1.56789 0.8399,2.49146 0.83988,0.92359 2.20472,0.92359 0.83989,0 1.62729,-0.41885 0.78739,-0.41883 1.29135,-1.24574 0.51443,-0.83765 0.51443,-2.09414 z m 7.44508,6.9375 v -16.49532 h 3.68503 v 2.74922 h 0.16799 q 0.44093,-1.42831 1.5118,-2.20152 1.08138,-0.78395 2.46719,-0.78395 0.31496,0 0.7034,0.0321 0.39896,0.0215 0.66144,0.0752 v 3.57613 q -0.24149,-0.086 -0.76642,-0.15034 -0.51443,-0.0752 -0.99737,-0.0752 -1.03937,0 -1.86876,0.46178 -0.81889,0.45104 -1.29133,1.25646 -0.47245,0.80546 -0.47245,1.85788 v 9.69748 z m 21.87192,0 -4.55641,-16.49532 h 3.87401 l 2.83464,11.59827 h 0.14697 l 2.89764,-11.59827 h 3.83201 l 2.89763,11.53382 h 0.15748 l 2.79265,-11.53382 h 3.8845 l -4.56692,16.49532 h -3.95799 l -3.02363,-11.14723 h -0.22046 l -3.02362,11.14723 z m 24.96746,-9.66522 v 9.66522 h -3.80053 v -21.99374 h 3.71653 v 8.30134 h 0.18898 q 0.56694,-1.39609 1.75326,-2.20152 1.19685,-0.81618 3.04463,-0.81618 1.67978,0 2.92912,0.71952 1.24934,0.71952 1.93176,2.10487 0.69291,1.38534 0.69291,3.38283 v 10.50288 h -3.80051 v -9.9015 q 0,-1.66456 -0.8399,-2.58812 -0.82939,-0.93431 -2.3307,-0.93431 -1.00787,0 -1.80577,0.45104 -0.7874,0.44032 -1.23886,1.27797 -0.44092,0.83765 -0.44092,2.0297 z m 21.09342,9.98739 q -2.3622,0 -4.09446,-1.06319 -1.73229,-1.06317 -2.68768,-2.97473 -0.94486,-1.91158 -0.94486,-4.46746 0,-2.55592 0.94486,-4.47824 0.95539,-1.9223 2.68768,-2.98548 1.73226,-1.06317 4.09446,-1.06317 2.36221,0 4.09449,1.06317 1.73226,1.06318 2.67718,2.98548 0.95535,1.92232 0.95535,4.47824 0,2.55588 -0.95535,4.46746 -0.94492,1.91156 -2.67718,2.97473 -1.73228,1.06319 -4.09449,1.06319 z m 0.0209,-3.11435 q 1.28083,0 2.14174,-0.71953 0.86086,-0.73025 1.28083,-1.95452 0.43043,-1.22427 0.43043,-2.72773 0,-1.51422 -0.43043,-2.73849 -0.41997,-1.23498 -1.28083,-1.96525 -0.86091,-0.73026 -2.14174,-0.73026 -1.31234,0 -2.18373,0.73026 -0.86087,0.73027 -1.29133,1.96525 -0.41994,1.22427 -0.41994,2.73849 0,1.50346 0.41994,2.72773 0.43046,1.22427 1.29133,1.95452 0.87139,0.71953 2.18373,0.71953 z m 14.45826,-19.20156 v 21.99374 h -3.80051 v -21.99374 z m 10.7837,22.31591 q -2.4252,0 -4.18897,-1.03097 -1.75327,-1.0417 -2.69816,-2.94251 -0.94488,-1.91155 -0.94488,-4.4997 0,-2.54517 0.94488,-4.46748 0.9554,-1.93303 2.66667,-3.00697 1.71129,-1.08464 4.02099,-1.08464 1.49081,0 2.81363,0.494 1.33335,0.48325 2.3517,1.50349 1.02888,1.02021 1.6168,2.59886 0.58792,1.56792 0.58792,3.73722 v 1.19204 h -13.21777 v -2.62034 h 9.5748 q -0.0105,-1.11688 -0.47245,-1.98673 -0.46194,-0.88063 -1.29133,-1.38537 -0.8189,-0.50474 -1.91076,-0.50474 -1.16536,0 -2.04725,0.57993 -0.88189,0.56917 -1.37532,1.50346 -0.48294,0.92358 -0.49343,2.0297 v 2.28745 q 0,1.43903 0.51444,2.46998 0.51441,1.02023 1.4383,1.56792 0.92389,0.53696 2.16273,0.53696 0.82939,0 1.50131,-0.23627 0.67191,-0.247 1.16535,-0.71952 0.49344,-0.47253 0.7454,-1.17058 l 3.54855,0.40811 q -0.33594,1.43903 -1.28083,2.51294 -0.93438,1.06318 -2.39369,1.65386 -1.45932,0.5799 -3.33858,0.5799 z m 17.36793,-0.32217 v -21.99374 h 3.895 v 10.10549 h 0.26246 l 8.38844,-10.10549 h 4.7559 l -8.31495,9.86924 8.38842,12.1245 h -4.6824 l -6.41467,-9.42896 -2.3832,2.87807 v 6.55089 z m 28.85197,-6.9375 v -9.55782 h 3.80052 v 16.49532 h -3.68504 v -2.93179 h -0.16796 q -0.54593,1.38534 -1.79528,2.26596 -1.23884,0.88061 -3.0551,0.88061 -1.5853,0 -2.80315,-0.71952 -1.20736,-0.73027 -1.88976,-2.11561 -0.68241,-1.3961 -0.68241,-3.3721 v -10.50287 h 3.80053 v 9.9015 q 0,1.56789 0.83987,2.49146 0.83991,0.92359 2.20472,0.92359 0.83991,0 1.62731,-0.41885 0.7874,-0.41883 1.29131,-1.24574 0.51444,-0.83765 0.51444,-2.09414 z m 7.61314,6.9375 v -21.99374 h 3.80051 v 8.22616 h 0.15747 q 0.29396,-0.6014 0.8294,-1.27796 0.53544,-0.68731 1.44881,-1.17056 0.9134,-0.494 2.33071,-0.494 1.86877,0 3.37007,0.97725 1.51182,0.96653 2.3937,2.86736 0.89239,1.89009 0.89239,4.6393 0,2.71701 -0.87138,4.61784 -0.87141,1.90081 -2.37271,2.89955 -1.50132,0.99875 -3.40157,0.99875 -1.38581,0 -2.29921,-0.47253 -0.91339,-0.47251 -1.46981,-1.13833 -0.54594,-0.67659 -0.8504,-1.27799 h -0.22046 v 2.5989 z m 3.72703,-8.24767 q 0,1.60015 0.44092,2.80291 0.45147,1.2028 1.29134,1.87936 0.8504,0.66582 2.05775,0.66582 1.25984,0 2.11023,-0.6873 0.85038,-0.69805 1.28084,-1.90082 0.44096,-1.21352 0.44096,-2.75997 0,-1.53568 -0.43047,-2.72773 -0.43045,-1.19203 -1.28084,-1.86861 -0.85039,-0.67655 -2.12072,-0.67655 -1.21784,0 -2.06825,0.65507 -0.85038,0.65509 -1.29133,1.83638 -0.43043,1.18131 -0.43043,2.78144 z m 21.61838,8.56984 q -2.42522,0 -4.18898,-1.03097 -1.75327,-1.0417 -2.69815,-2.94251 -0.94489,-1.91155 -0.94489,-4.4997 0,-2.54517 0.94489,-4.46748 0.95536,-1.93303 2.66665,-3.00697 1.71129,-1.08464 4.021,-1.08464 1.49079,0 2.81363,0.494 1.33332,0.48325 2.35171,1.50349 1.02886,1.02021 1.61678,2.59886 0.58794,1.56792 0.58794,3.73722 v 1.19204 h -13.21784 v -2.62034 h 9.57479 q -0.0105,-1.11688 -0.47245,-1.98673 -0.46191,-0.88063 -1.29131,-1.38537 -0.81891,-0.50474 -1.91076,-0.50474 -1.16536,0 -2.04724,0.57993 -0.88189,0.56917 -1.37534,1.50346 -0.48293,0.92358 -0.49343,2.0297 v 2.28745 q 0,1.43903 0.51443,2.46998 0.51443,1.02023 1.43833,1.56792 0.92387,0.53696 2.16272,0.53696 0.82938,0 1.50131,-0.23627 0.67192,-0.247 1.16534,-0.71952 0.49346,-0.47253 0.74542,-1.17058 l 3.54857,0.40811 q -0.33599,1.43903 -1.28086,2.51294 -0.93438,1.06318 -2.3937,1.65386 -1.45931,0.5799 -3.33856,0.5799 z m 10.1223,-0.32217 v -16.49532 h 3.68501 v 2.74922 h 0.16801 q 0.44093,-1.42831 1.51179,-2.20152 1.08136,-0.78395 2.46718,-0.78395 0.31496,0 0.70342,0.0321 0.39894,0.0215 0.6614,0.0752 v 3.57613 q -0.24146,-0.086 -0.76639,-0.15034 -0.51443,-0.0752 -0.99738,-0.0752 -1.03936,0 -1.86877,0.46178 -0.81888,0.45104 -1.29132,1.25646 -0.47245,0.80546 -0.47245,1.85788 v 9.69748 z m 15.26665,-9.66522 v 9.66522 h -3.80053 v -16.49532 h 3.63253 v 2.80292 h 0.18899 q 0.55642,-1.38534 1.77428,-2.20152 1.22834,-0.81618 3.0341,-0.81618 1.66929,0 2.90815,0.73027 1.24934,0.73025 1.93175,2.11559 0.6929,1.38537 0.6824,3.36136 v 10.50288 h -3.8005 v -9.9015 q 0,-1.65381 -0.8399,-2.58812 -0.8294,-0.93431 -2.29922,-0.93431 -0.99736,0 -1.77426,0.45104 -0.7664,0.44032 -1.20734,1.27797 -0.43045,0.83765 -0.43045,2.0297 z m 21.10392,9.98739 q -2.42521,0 -4.18899,-1.03097 -1.75325,-1.0417 -2.69814,-2.94251 -0.94489,-1.91155 -0.94489,-4.4997 0,-2.54517 0.94489,-4.46748 0.95537,-1.93303 2.66665,-3.00697 1.71129,-1.08464 4.02101,-1.08464 1.4908,0 2.81364,0.494 1.33332,0.48325 2.35168,1.50349 1.02889,1.02021 1.6168,2.59886 0.58792,1.56792 0.58792,3.73722 v 1.19204 h -13.21782 v -2.62034 h 9.5748 q -0.0105,-1.11688 -0.47246,-1.98673 -0.46193,-0.88063 -1.29132,-1.38537 -0.8189,-0.50474 -1.91077,-0.50474 -1.16535,0 -2.04724,0.57993 -0.88188,0.56917 -1.37532,1.50346 -0.48294,0.92358 -0.49343,2.0297 v 2.28745 q 0,1.43903 0.51444,2.46998 0.51442,1.02023 1.4383,1.56792 0.92388,0.53696 2.16272,0.53696 0.82942,0 1.50133,-0.23627 0.67189,-0.247 1.16534,-0.71952 0.49343,-0.47253 0.74542,-1.17058 l 3.54854,0.40811 q -0.33597,1.43903 -1.28084,2.51294 -0.93438,1.06318 -2.39369,1.65386 -1.45932,0.5799 -3.33857,0.5799 z m 18.17474,-16.81749 v 3.00697 h -9.2703 v -3.00697 z m -6.98161,-3.95201 h 3.80052 v 15.48583 q 0,0.78396 0.23096,1.20278 0.24148,0.40809 0.62993,0.55846 0.38844,0.15034 0.86088,0.15034 0.35695,0 0.65092,-0.0537 0.30447,-0.0536 0.46195,-0.0966 l 0.64043,3.03918 q -0.30448,0.10736 -0.87139,0.23626 -0.55644,0.12895 -1.36485,0.15034 -1.42781,0.043 -2.57216,-0.44031 -1.14437,-0.49401 -1.81626,-1.52495 -0.66145,-1.03095 -0.65093,-2.57738 z m 16.873,20.7695 q -2.4252,0 -4.18896,-1.03097 -1.75328,-1.0417 -2.69815,-2.94251 -0.94491,-1.91155 -0.94491,-4.4997 0,-2.54517 0.94491,-4.46748 0.95537,-1.93303 2.66665,-3.00697 1.71129,-1.08464 4.02099,-1.08464 1.4908,0 2.81364,0.494 1.33333,0.48325 2.35171,1.50349 1.02885,1.02021 1.61679,2.59886 0.58793,1.56792 0.58793,3.73722 v 1.19204 h -13.21784 v -2.62034 h 9.57479 q -0.0105,-1.11688 -0.47244,-1.98673 -0.46194,-0.88063 -1.29133,-1.38537 -0.81891,-0.50474 -1.91077,-0.50474 -1.16534,0 -2.04722,0.57993 -0.88189,0.56917 -1.37534,1.50346 -0.48292,0.92358 -0.49343,2.0297 v 2.28745 q 0,1.43903 0.51443,2.46998 0.51444,1.02023 1.43833,1.56792 0.92387,0.53696 2.16271,0.53696 0.82939,0 1.50132,-0.23627 0.67191,-0.247 1.16536,-0.71952 0.49342,-0.47253 0.74539,-1.17058 l 3.54856,0.40811 q -0.33597,1.43903 -1.28086,2.51294 -0.93438,1.06318 -2.39369,1.65386 -1.45931,0.5799 -3.33857,0.5799 z m 22.86765,-12.4574 -3.46455,0.38659 q -0.14698,-0.53694 -0.51444,-1.00946 -0.35695,-0.47251 -0.96586,-0.76246 -0.60895,-0.28998 -1.49082,-0.28998 -1.18635,0 -1.99475,0.52623 -0.79791,0.52621 -0.78741,1.36387 -0.0105,0.7195 0.51443,1.17056 0.53544,0.45104 1.76378,0.74099 l 2.75065,0.60143 q 2.28873,0.50471 3.40159,1.6001 1.12334,1.09539 1.13383,2.86734 -0.0105,1.55718 -0.89238,2.74922 -0.8714,1.18131 -2.42517,1.84714 -1.55382,0.66583 -3.56956,0.66583 -2.96061,0 -4.76639,-1.26722 -1.80579,-1.27796 -2.15224,-3.55465 l 3.70603,-0.36513 q 0.25199,1.11686 1.07086,1.68606 0.8189,0.56914 2.13124,0.56914 1.35431,0 2.17323,-0.56914 0.82939,-0.5692 0.82939,-1.40685 0,-0.70876 -0.53544,-1.17057 -0.52493,-0.46178 -1.63778,-0.70878 l -2.75065,-0.59065 q -2.32021,-0.49399 -3.43308,-1.66456 -1.11286,-1.18132 -1.10234,-2.98548 -0.0105,-1.52495 0.80839,-2.64182 0.82939,-1.12761 2.29921,-1.73975 1.4803,-0.62287 3.41207,-0.62287 2.83462,0 4.46193,1.23501 1.63778,1.23498 2.02623,3.33986 z m 17.33653,12.4574 q -2.41471,0 -4.14697,-1.08464 -1.72179,-1.08467 -2.65617,-2.99625 -0.92388,-1.92229 -0.92388,-4.42449 0,-2.51297 0.94488,-4.43528 0.94488,-1.93303 2.66665,-3.00697 1.73229,-1.08464 4.09448,-1.08464 1.96326,0 3.47506,0.74099 1.5223,0.73029 2.42519,2.07267 0.9029,1.33166 1.02886,3.11433 h -3.63251 q -0.22048,-1.19204 -1.04988,-1.98672 -0.81889,-0.80545 -2.19423,-0.80545 -1.16536,0 -2.04723,0.64436 -0.8819,0.63361 -1.37534,1.82565 -0.48292,1.19205 -0.48292,2.8566 0,1.68605 0.48292,2.89958 0.48295,1.20277 1.35434,1.85785 0.88189,0.64435 2.06823,0.64435 0.8399,0 1.50132,-0.32216 0.67191,-0.33292 1.12335,-0.95578 0.45143,-0.62288 0.61944,-1.51423 h 3.63251 q -0.13654,1.75048 -1.00786,3.10362 -0.8714,1.3424 -2.37269,2.10486 -1.50131,0.75175 -3.52755,0.75175 z m 13.57639,-22.31591 v 21.99374 h -3.8005 v -21.99374 z m 13.92281,15.05624 v -9.55782 h 3.80051 v 16.49532 h -3.68501 v -2.93179 h -0.16799 q -0.54593,1.38534 -1.79527,2.26596 -1.23884,0.88061 -3.05509,0.88061 -1.58531,0 -2.80316,-0.71952 -1.20734,-0.73027 -1.88976,-2.11561 -0.68243,-1.3961 -0.68243,-3.3721 v -10.50287 h 3.80051 v 9.9015 q 0,1.56789 0.83991,2.49146 0.83989,0.92359 2.20473,0.92359 0.83989,0 1.62729,-0.41885 0.7874,-0.41883 1.29132,-1.24574 0.51444,-0.83765 0.51444,-2.09414 z m 20.1905,-5.19773 -3.46456,0.38659 q -0.14697,-0.53694 -0.51444,-1.00946 -0.35695,-0.47251 -0.96586,-0.76246 -0.60892,-0.28998 -1.49082,-0.28998 -1.18636,0 -1.99475,0.52623 -0.79791,0.52621 -0.78738,1.36387 -0.0105,0.7195 0.51441,1.17056 0.53544,0.45104 1.76377,0.74099 l 2.75066,0.60143 q 2.28871,0.50471 3.40158,1.6001 1.12336,1.09539 1.13386,2.86734 -0.0105,1.55718 -0.89239,2.74922 -0.87139,1.18131 -2.42519,1.84714 -1.55381,0.66583 -3.56954,0.66583 -2.96064,0 -4.76639,-1.26722 -1.8058,-1.27796 -2.15225,-3.55465 l 3.70602,-0.36513 q 0.25198,1.11686 1.07087,1.68606 0.81891,0.56914 2.13124,0.56914 1.35433,0 2.17323,-0.56914 0.82939,-0.5692 0.82939,-1.40685 0,-0.70876 -0.53543,-1.17057 -0.52495,-0.46178 -1.63782,-0.70878 l -2.75063,-0.59065 q -2.3202,-0.49399 -3.43307,-1.66456 -1.11285,-1.18132 -1.10235,-2.98548 -0.0105,-1.52495 0.8084,-2.64182 0.82939,-1.12761 2.29919,-1.73975 1.48032,-0.62287 3.41208,-0.62287 2.83462,0 4.46193,1.23501 1.6378,1.23498 2.02624,3.33986 z m 11.27717,-4.36009 v 3.00697 h -9.27033 v -3.00697 z m -6.98163,-3.95201 h 3.80054 v 15.48583 q 0,0.78396 0.23096,1.20278 0.24147,0.40809 0.62992,0.55846 0.38844,0.15034 0.86089,0.15034 0.35694,0 0.65092,-0.0537 0.30447,-0.0536 0.46194,-0.0966 l 0.64041,3.03918 q -0.30446,0.10736 -0.87138,0.23626 -0.55643,0.12895 -1.36482,0.15034 -1.42783,0.043 -2.57218,-0.44031 -1.14436,-0.49401 -1.81627,-1.52495 -0.66142,-1.03095 -0.65093,-2.57738 z m 16.87304,20.7695 q -2.42522,0 -4.18899,-1.03097 -1.75327,-1.0417 -2.69816,-2.94251 -0.94487,-1.91155 -0.94487,-4.4997 0,-2.54517 0.94487,-4.46748 0.95538,-1.93303 2.66668,-3.00697 1.71127,-1.08464 4.02098,-1.08464 1.49079,0 2.81355,0.494 1.33337,0.48325 2.3518,1.50349 1.02884,1.02021 1.61676,2.59886 0.58792,1.56792 0.58792,3.73722 v 1.19204 h -13.2178 v -2.62034 h 9.5748 q -0.0105,-1.11688 -0.47246,-1.98673 -0.46195,-0.88063 -1.29133,-1.38537 -0.81889,-0.50474 -1.91076,-0.50474 -1.16533,0 -2.04723,0.57993 -0.88188,0.56917 -1.37531,1.50346 -0.48295,0.92358 -0.49345,2.0297 v 2.28745 q 0,1.43903 0.51443,2.46998 0.51443,1.02023 1.43832,1.56792 0.92387,0.53696 2.16272,0.53696 0.82939,0 1.50131,-0.23627 0.67184,-0.247 1.16533,-0.71952 0.49339,-0.47253 0.74534,-1.17058 l 3.54857,0.40811 q -0.33597,1.43903 -1.28079,2.51294 -0.93441,1.06318 -2.39376,1.65386 -1.45922,0.5799 -3.33847,0.5799 z m 10.12225,-0.32217 v -16.49532 h 3.68506 v 2.74922 h 0.16793 q 0.44092,-1.42831 1.51182,-2.20152 1.08131,-0.78395 2.46715,-0.78395 0.31494,0 0.70349,0.0321 0.39885,0.0215 0.66132,0.0752 v 3.57613 q -0.24143,-0.086 -0.76637,-0.15034 -0.51442,-0.0752 -0.9974,-0.0752 -1.03935,0 -1.86871,0.46178 -0.81895,0.45104 -1.29131,1.25646 -0.47246,0.80546 -0.47246,1.85788 v 9.69748 z m 23.18421,0.33289 q -1.53275,0 -2.76117,-0.55843 -1.2178,-0.56916 -1.9317,-1.6753 -0.70338,-1.10613 -0.70338,-2.72773 0,-1.39611 0.5039,-2.30893 0.5039,-0.91282 1.37533,-1.46052 0.87142,-0.5477 1.96324,-0.8269 1.10235,-0.28996 2.27819,-0.41882 1.41739,-0.15036 2.29922,-0.26848 0.88194,-0.12895 1.28079,-0.38662 0.40948,-0.26847 0.40948,-0.8269 v -0.0645 q 0,-1.21351 -0.70339,-1.87933 -0.70338,-0.66583 -2.02623,-0.66583 -1.39636,0 -2.2152,0.62285 -0.80844,0.62287 -1.09194,1.47128 l -3.54846,-0.51548 q 0.41989,-1.50348 1.38574,-2.51297 0.96595,-1.02021 2.3622,-1.52496 1.39636,-0.51547 3.08663,-0.51547 1.16533,0 2.32025,0.27921 1.15481,0.27924 2.11025,0.92359 0.95534,0.63358 1.53274,1.72898 0.58793,1.09539 0.58793,2.73847 v 11.03989 h -3.65352 v -2.26597 h -0.12597 q -0.34649,0.68731 -0.97637,1.28869 -0.61947,0.59067 -1.56429,0.9558 -0.93441,0.35438 -2.19427,0.35438 z m 0.98688,-2.8566 q 1.1444,0 1.98428,-0.46179 0.83987,-0.47251 1.29131,-1.24573 0.46194,-0.77321 0.46194,-1.68606 v -1.94376 q -0.17845,0.15035 -0.60895,0.27921 -0.41989,0.12895 -0.94482,0.2255 -0.52494,0.0966 -1.03936,0.17185 -0.51452,0.0752 -0.89245,0.12896 -0.85039,0.11809 -1.52223,0.38661 -0.67194,0.26847 -1.06038,0.75172 -0.38844,0.47253 -0.38844,1.22427 0,1.07391 0.76637,1.62161 0.76637,0.5477 1.95273,0.5477 z m 19.15119,-13.97161 v 3.00697 h -9.27038 v -3.00697 z m -6.98168,-3.95201 h 3.80052 v 15.48583 q 0,0.78396 0.23103,1.20278 0.24143,0.40809 0.62988,0.55846 0.38844,0.15034 0.8609,0.15034 0.3569,0 0.65091,-0.0537 0.30443,-0.0536 0.46195,-0.0966 l 0.6404,3.03918 q -0.30443,0.10736 -0.87142,0.23626 -0.55638,0.12895 -1.36481,0.15034 -1.4278,0.043 -2.5721,-0.44031 -1.14441,-0.49401 -1.81635,-1.52495 -0.66142,-1.03095 -0.65091,-2.57738 z m 21.62002,20.78022 q -1.53274,0 -2.76116,-0.55843 -1.21781,-0.56916 -1.9317,-1.6753 -0.70339,-1.10613 -0.70339,-2.72773 0,-1.39611 0.50391,-2.30893 0.5039,-0.91282 1.37532,-1.46052 0.87142,-0.5477 1.96325,-0.8269 1.10234,-0.28996 2.27819,-0.41882 1.41728,-0.15036 2.29922,-0.26848 0.88183,-0.12895 1.28089,-0.38662 0.40937,-0.26847 0.40937,-0.8269 v -0.0645 q 0,-1.21351 -0.70338,-1.87933 -0.70338,-0.66583 -2.02624,-0.66583 -1.39635,0 -2.2152,0.62285 -0.80843,0.62287 -1.09193,1.47128 l -3.54846,-0.51548 q 0.41988,-1.50348 1.38584,-2.51297 0.96585,-1.02021 2.3621,-1.52496 1.39636,-0.51547 3.08662,-0.51547 1.16533,0 2.32025,0.27921 1.15482,0.27924 2.11026,0.92359 0.95533,0.63358 1.53274,1.72898 0.58792,1.09539 0.58792,2.73847 v 11.03989 h -3.65351 v -2.26597 h -0.12598 q -0.34648,0.68731 -0.97636,1.28869 -0.61947,0.59067 -1.56429,0.9558 -0.93441,0.35438 -2.19428,0.35438 z m 0.98689,-2.8566 q 1.1444,0 1.98428,-0.46179 0.83987,-0.47251 1.2913,-1.24573 0.46195,-0.77321 0.46195,-1.68606 v -1.94376 q -0.17845,0.15035 -0.60895,0.27921 -0.41989,0.12895 -0.94482,0.2255 -0.52494,0.0966 -1.03936,0.17185 -0.51452,0.0752 -0.89245,0.12896 -0.85039,0.11809 -1.52233,0.38661 -0.67184,0.26847 -1.06028,0.75172 -0.38845,0.47253 -0.38845,1.22427 0,1.07391 0.76637,1.62161 0.76637,0.5477 1.95274,0.5477 z m 25.18951,9.0531 q -2.04726,0 -3.51702,-0.56918 -1.46986,-0.55844 -2.36221,-1.50349 -0.89245,-0.94505 -1.23883,-2.09411 l 3.42249,-0.84841 q 0.23102,0.48327 0.67194,0.95578 0.44092,0.48327 1.18636,0.7947 0.75586,0.32219 1.90026,0.32219 1.61676,0 2.67715,-0.80543 1.06039,-0.7947 1.06039,-2.62036 v -3.12509 h -0.18897 q -0.29401,0.60139 -0.8609,1.235 -0.55649,0.63362 -1.48038,1.06318 -0.91338,0.42955 -2.29911,0.42955 -1.85831,0 -3.37012,-0.89134 -1.50131,-0.90208 -2.39365,-2.68478 -0.88194,-1.79345 -0.88194,-4.48898 0,-2.71698 0.88194,-4.58559 0.89234,-1.87935 2.40416,-2.84588 1.51182,-0.97725 3.37002,-0.97725 1.41738,0 2.33076,0.494 0.9239,0.48325 1.46976,1.17056 0.54596,0.67656 0.82946,1.27796 h 0.21 v -2.72774 h 3.74794 v 16.7638 q 0,2.11561 -0.98688,3.50096 -0.98688,1.38533 -2.69808,2.07263 -1.71129,0.68732 -3.88454,0.68732 z m 0.0316,-9.81557 q 1.20739,0 2.05778,-0.6014 0.85039,-0.6014 1.29131,-1.72899 0.44092,-1.12762 0.44092,-2.70626 0,-1.55717 -0.44092,-2.72775 -0.4304,-1.17057 -1.28079,-1.81491 -0.83988,-0.65507 -2.0683,-0.65507 -1.27027,0 -2.12066,0.67655 -0.8504,0.67658 -1.2809,1.85787 -0.4304,1.17057 -0.4304,2.66331 0,1.51421 0.4304,2.65256 0.44102,1.12761 1.29141,1.7612 0.86091,0.62289 2.11015,0.62289 z m 14.98326,-18.70756 v 21.99374 h -3.80052 v -21.99374 z m 8.28497,22.32663 q -1.53275,0 -2.76117,-0.55843 -1.2178,-0.56916 -1.9317,-1.6753 -0.70338,-1.10613 -0.70338,-2.72773 0,-1.39611 0.5039,-2.30893 0.5039,-0.91282 1.37533,-1.46052 0.87142,-0.5477 1.96324,-0.8269 1.10235,-0.28996 2.27818,-0.41882 1.41727,-0.15036 2.29914,-0.26848 0.882,-0.12895 1.2809,-0.38662 0.4094,-0.26847 0.4094,-0.8269 v -0.0645 q 0,-1.21351 -0.7034,-1.87933 -0.7034,-0.66583 -2.02617,-0.66583 -1.39637,0 -2.21519,0.62285 -0.80844,0.62287 -1.09194,1.47128 l -3.54846,-0.51548 q 0.41989,-1.50348 1.38574,-2.51297 0.96595,-1.02021 2.3622,-1.52496 1.39638,-0.51547 3.08665,-0.51547 1.16527,0 2.32017,0.27921 1.1548,0.27924 2.1103,0.92359 0.9553,0.63358 1.5327,1.72898 0.5879,1.09539 0.5879,2.73847 v 11.03989 h -3.6535 v -2.26597 h -0.126 q -0.3465,0.68731 -0.9763,1.28869 -0.6195,0.59067 -1.56427,0.9558 -0.93437,0.35438 -2.19427,0.35438 z m 0.9869,-2.8566 q 1.14437,0 1.98424,-0.46179 0.8398,-0.47251 1.2913,-1.24573 0.4619,-0.77321 0.4619,-1.68606 v -1.94376 q -0.1784,0.15035 -0.6089,0.27921 -0.4199,0.12895 -0.9449,0.2255 -0.5249,0.0966 -1.03927,0.17185 -0.5145,0.0752 -0.89247,0.12896 -0.8504,0.11809 -1.5222,0.38661 -0.67194,0.26847 -1.06038,0.75172 -0.38844,0.47253 -0.38844,1.22427 0,1.07391 0.76637,1.62161 0.76637,0.5477 1.95275,0.5477 z m 14.89914,-7.14151 v 9.66522 h -3.8005 v -16.49532 h 3.6325 v 2.80292 h 0.1889 q 0.5565,-1.38534 1.7743,-2.20152 1.2284,-0.81618 3.0342,-0.81618 1.6692,0 2.908,0.73027 1.2494,0.73025 1.9319,2.11559 0.6928,1.38537 0.6824,3.36136 v 10.50288 h -3.8005 v -9.9015 q 0,-1.65381 -0.84,-2.58812 -0.8294,-0.93431 -2.2992,-0.93431 -0.9973,0 -1.7742,0.45104 -0.7665,0.44032 -1.2074,1.27797 -0.4304,0.83765 -0.4304,2.0297 z m 20.9989,9.98739 q -2.4147,0 -4.1469,-1.08464 -1.7218,-1.08467 -2.6562,-2.99625 -0.9239,-1.92229 -0.9239,-4.42449 0,-2.51297 0.9449,-4.43528 0.9449,-1.93303 2.6666,-3.00697 1.7324,-1.08464 4.0946,-1.08464 1.9632,0 3.475,0.74099 1.5223,0.73029 2.4252,2.07267 0.9029,1.33166 1.0289,3.11433 h -3.6325 q -0.2205,-1.19204 -1.05,-1.98672 -0.8188,-0.80545 -2.1942,-0.80545 -1.1653,0 -2.0472,0.64436 -0.8819,0.63361 -1.3754,1.82565 -0.4828,1.19205 -0.4828,2.8566 0,1.68605 0.4828,2.89958 0.483,1.20277 1.3543,1.85785 0.882,0.64435 2.0683,0.64435 0.8399,0 1.5013,-0.32216 0.672,-0.33292 1.1234,-0.95578 0.4514,-0.62288 0.6195,-1.51423 h 3.6325 q -0.1366,1.75048 -1.008,3.10362 -0.8713,1.3424 -2.3727,2.10486 -1.5013,0.75175 -3.5275,0.75175 z m 16.9149,0 q -2.4252,0 -4.1889,-1.03097 -1.7533,-1.0417 -2.6982,-2.94251 -0.9448,-1.91155 -0.9448,-4.4997 0,-2.54517 0.9448,-4.46748 0.9554,-1.93303 2.6667,-3.00697 1.7113,-1.08464 4.021,-1.08464 1.4908,0 2.8137,0.494 1.3332,0.48325 2.3517,1.50349 1.0288,1.02021 1.6167,2.59886 0.588,1.56792 0.588,3.73722 v 1.19204 h -13.2178 v -2.62034 h 9.5748 q -0.012,-1.11688 -0.4726,-1.98673 -0.4619,-0.88063 -1.2913,-1.38537 -0.8188,-0.50474 -1.9108,-0.50474 -1.1652,0 -2.0471,0.57993 -0.882,0.56917 -1.3754,1.50346 -0.4829,0.92358 -0.4934,2.0297 v 2.28745 q 0,1.43903 0.5145,2.46998 0.5144,1.02023 1.4382,1.56792 0.924,0.53696 2.1628,0.53696 0.8294,0 1.5012,-0.23627 0.6719,-0.247 1.1654,-0.71952 0.4934,-0.47253 0.7455,-1.17058 l 3.5484,0.40811 q -0.3358,1.43903 -1.2808,2.51294 -0.9344,1.06318 -2.3937,1.65386 -1.4592,0.5799 -3.3386,0.5799 z m 12.4635,-0.086 q -0.9553,0 -1.6378,-0.68731 -0.6824,-0.68732 -0.6719,-1.67529 -0.012,-0.96653 0.6719,-1.65384 0.6825,-0.6873 1.6378,-0.6873 0.9239,0 1.6063,0.6873 0.693,0.68731 0.7034,1.65384 -0.012,0.65508 -0.3359,1.19204 -0.3149,0.53695 -0.8399,0.85911 -0.5144,0.31145 -1.1339,0.31145 z"
       id="text36"
       style="font-weight:600;font-size:34px;font-family:Inter, 'Helvetica Neue', Arial, system-ui, sans-serif;letter-spacing:-0.3;text-anchor:middle;fill:#8a95a8;stroke-width:0.879439"
       aria-label="See your whole Kubernetes cluster at a glance." />
  </g>
</svg>
