<svg xmlns="http://www.w3.org/2000/svg" viewBox="0 0 264 42" width="264" height="42" role="img" aria-label="kubeatlas">
  <title>kubeatlas wordmark</title>
  <desc>Lowercase kubeatlas wordmark — neutral default ("kube" inherits, "atlas" accent #3b82f6).</desc>
  <g>
    <path transform="translate(0.00 41) scale(0.02734 -0.02734)" fill="currentColor" d="M430 297V714H480L800 1118H1197L728 545H636ZM115 0V1490H464V0ZM810 0 512 467 742 715 1213 0Z"/>
    <path transform="translate(32.00 41) scale(0.02734 -0.02734)" fill="currentColor" d="M503 -14Q386 -14 298.5 38.0Q211 90 163.0 185.0Q115 280 115 406V1118H464V474Q464 380 512.5 326.5Q561 273 646 273Q704 273 746.5 297.5Q789 322 813.0 368.5Q837 415 837 480V1118H1186V0H858L852 282H867Q825 148 737.0 67.0Q649 -14 503 -14Z"/>
    <path transform="translate(66.37 41) scale(0.02734 -0.02734)" fill="currentColor" d="M786 -16Q701 -16 638.5 12.5Q576 41 535.0 86.0Q494 131 472 181H460V0H115V1490H464V926H472Q493 977 533.5 1024.0Q574 1071 636.5 1101.5Q699 1132 788 1132Q906 1132 1007.5 1070.5Q1109 1009 1171.5 881.5Q1234 754 1234 558Q1234 368 1174.0 240.5Q1114 113 1012.0 48.5Q910 -16 786 -16ZM667 256Q734 256 780.5 293.5Q827 331 851.0 399.5Q875 468 875 558Q875 649 851.0 716.5Q827 784 781.0 821.5Q735 859 667 859Q600 859 553.0 822.5Q506 786 481.0 718.5Q456 651 456 558Q456 467 481.0 399.0Q506 331 553.5 293.5Q601 256 667 256Z"/>
    <path transform="translate(100.88 41) scale(0.02734 -0.02734)" fill="currentColor" d="M636 -21Q461 -21 334.0 48.5Q207 118 139.5 247.0Q72 376 72 555Q72 727 139.5 857.0Q207 987 331.0 1059.5Q455 1132 623 1132Q741 1132 839.5 1095.0Q938 1058 1010.5 985.5Q1083 913 1122.5 807.0Q1162 701 1162 562V474H196V677H996L833 629Q833 707 809.5 763.0Q786 819 740.0 849.0Q694 879 626 879Q558 879 511.0 848.5Q464 818 439.5 763.5Q415 709 415 636V490Q415 404 443.5 346.5Q472 289 523.0 260.5Q574 232 642 232Q689 232 727.5 245.0Q766 258 793.5 284.0Q821 310 835 347L1146 296Q1118 200 1049.5 128.5Q981 57 876.5 18.0Q772 -21 636 -21Z"/>
    <path transform="translate(133.31 41) scale(0.02734 -0.02734)" fill="#3b82f6" d="M428 -20Q321 -20 237.5 16.5Q154 53 107.0 126.5Q60 200 60 310Q60 403 92.5 467.0Q125 531 183.0 571.0Q241 611 316.0 632.0Q391 653 476 660Q571 668 629.0 677.5Q687 687 714.0 706.0Q741 725 741 759V763Q741 802 723.0 829.0Q705 856 671.0 870.0Q637 884 589 884Q541 884 503.5 870.0Q466 856 442.0 830.0Q418 804 408 769L92 810Q114 906 178.5 978.5Q243 1051 347.5 1091.5Q452 1132 592 1132Q696 1132 786.5 1107.5Q877 1083 945.0 1035.5Q1013 988 1051.0 918.5Q1089 849 1089 759V0H761V157H752Q722 99 675.5 60.0Q629 21 567.5 0.5Q506 -20 428 -20ZM534 211Q593 211 640.5 235.0Q688 259 716.0 301.0Q744 343 744 398V505Q729 497 706.5 490.0Q684 483 657.0 477.5Q630 472 603.0 467.5Q576 463 551 459Q500 452 464.0 435.0Q428 418 409.0 391.0Q390 364 390 326Q390 289 409.0 263.5Q428 238 460.0 224.5Q492 211 534 211Z"/>
    <path transform="translate(165.06 41) scale(0.02734 -0.02734)" fill="#3b82f6" d="M718 1118V859H20V1118ZM168 1384H517V342Q517 298 538.0 276.5Q559 255 606 255Q624 255 656.5 259.0Q689 263 703 267L748 13Q689 -4 634.0 -10.0Q579 -16 530 -16Q352 -16 260.0 67.5Q168 151 168 311Z"/>
    <path transform="translate(185.25 41) scale(0.02734 -0.02734)" fill="#3b82f6" d="M464 1490V0H115V1490Z"/>
    <path transform="translate(199.90 41) scale(0.02734 -0.02734)" fill="#3b82f6" d="M428 -20Q321 -20 237.5 16.5Q154 53 107.0 126.5Q60 200 60 310Q60 403 92.5 467.0Q125 531 183.0 571.0Q241 611 316.0 632.0Q391 653 476 660Q571 668 629.0 677.5Q687 687 714.0 706.0Q741 725 741 759V763Q741 802 723.0 829.0Q705 856 671.0 870.0Q637 884 589 884Q541 884 503.5 870.0Q466 856 442.0 830.0Q418 804 408 769L92 810Q114 906 178.5 978.5Q243 1051 347.5 1091.5Q452 1132 592 1132Q696 1132 786.5 1107.5Q877 1083 945.0 1035.5Q1013 988 1051.0 918.5Q1089 849 1089 759V0H761V157H752Q722 99 675.5 60.0Q629 21 567.5 0.5Q506 -20 428 -20ZM534 211Q593 211 640.5 235.0Q688 259 716.0 301.0Q744 343 744 398V505Q729 497 706.5 490.0Q684 483 657.0 477.5Q630 472 603.0 467.5Q576 463 551 459Q500 452 464.0 435.0Q428 418 409.0 391.0Q390 364 390 326Q390 289 409.0 263.5Q428 238 460.0 224.5Q492 211 534 211Z"/>
    <path transform="translate(231.65 41) scale(0.02734 -0.02734)" fill="#3b82f6" d="M586 -21Q443 -21 333.0 19.5Q223 60 154.0 136.5Q85 213 65 320L389 371Q410 298 460.0 261.0Q510 224 599 224Q672 224 714.0 249.5Q756 275 756 317Q756 356 722.5 379.5Q689 403 619 417L424 455Q258 487 175.5 567.5Q93 648 93 777Q93 889 153.5 968.0Q214 1047 324.5 1089.5Q435 1132 585 1132Q725 1132 828.5 1094.5Q932 1057 995.5 987.5Q1059 918 1078 822L770 773Q755 829 708.5 860.5Q662 892 591 892Q528 892 484.5 866.5Q441 841 441 798Q441 764 468.0 738.5Q495 713 567 699L781 659Q947 627 1028.5 553.0Q1110 479 1110 357Q1110 242 1042.5 157.0Q975 72 857.0 25.5Q739 -21 586 -21Z"/>
  </g>
</svg>
